<svg xmlns="http://www.w3.org/2000/svg" viewBox="0 0 300 300">
    <!-- 白い線（角丸め） -->
  <rect x="5" y="5" width="290" height="290" fill="#FFA500" stroke="white" stroke-width="5" rx="50" ry="50"/>
  <rect x="35" y="285" width="240" height="20" fill="#4c3203" stroke="white" stroke-width="5" rx="5" ry="50"/>
  <!-- オリジナルのSVG内容 -->
  <g transform="translate(5, 5)">
        <svg xmlns="http://www.w3.org/2000/svg" viewBox="0 0 300 300">
  <style>
    .main-color { fill: #24292e; }
    .accent-color { fill: #FFA500; }
    .bg-color { fill: #f6f8fa; }
    .text { font: bold 16px Arial, sans-serif; fill: #24292e; }
  </style>
  
  <!-- Owl Body -->
  <svg version="1.0" xmlns="http://www.w3.org/2000/svg"
  x="0" y="0" width="300" height="290"
  viewBox="0 0 900.000000 1280.000000"
  preserveAspectRatio="xMidYMid meet">
  <metadata>
  Created by potrace 1.15, written by Peter Selinger 2001-2017
  </metadata>
  <g transform="translate(0.000000,1280.000000) scale(0.100000,-0.100000)"
  fill="#000000" stroke="none">
  <path d="M8545 12776 c-33 -12 -128 -57 -210 -101 -290 -153 -512 -248 -605
  -259 -96 -11 -271 -46 -420 -83 -379 -93 -389 -95 -482 -89 -148 10 -279 42
  -608 148 -266 85 -511 154 -674 187 -459 95 -975 130 -1497 101 -508 -29 -840
  -82 -1404 -225 -345 -88 -459 -111 -622 -127 -135 -12 -308 -2 -451 28 -157
  32 -534 170 -714 260 -48 24 -133 62 -189 84 -55 22 -122 51 -149 65 -26 13
  -50 22 -53 19 -19 -20 24 -146 105 -309 45 -90 292 -707 356 -891 48 -134 49
  -142 35 -175 -168 -398 -241 -1081 -177 -1644 57 -505 258 -1026 540 -1404
  l54 -71 -34 -48 c-18 -26 -46 -71 -62 -100 -22 -39 -37 -55 -63 -63 -46 -15
  -164 -130 -234 -227 -263 -366 -616 -1161 -796 -1797 -226 -801 -249 -1475
  -71 -2171 152 -598 415 -1109 770 -1502 226 -248 394 -340 610 -330 147 7 258
  56 381 166 99 90 169 191 359 520 l42 74 57 -99 c161 -277 351 -554 527 -769
  l82 -102 -33 -83 c-19 -46 -41 -111 -50 -144 -20 -76 -45 -237 -45 -292 0 -38
  -4 -44 -32 -59 -165 -85 -361 -283 -487 -492 -129 -216 -154 -424 -56 -488 92
  -60 287 15 478 186 l57 52 0 -49 c0 -71 34 -222 65 -292 31 -69 96 -135 143
  -146 114 -25 240 114 312 343 l26 82 43 -67 c57 -88 192 -221 255 -252 107
  -52 183 -34 226 54 95 195 -48 646 -294 928 l-65 75 9 59 c6 32 10 59 10 60 0
  2 35 -20 78 -48 233 -153 531 -242 752 -225 216 18 443 95 626 214 l61 40 12
  -68 11 -68 -41 -43 c-95 -103 -168 -211 -228 -339 -84 -180 -126 -351 -119
  -485 10 -187 104 -259 249 -188 65 32 218 182 268 264 l35 56 31 -97 c68 -207
  171 -329 280 -330 36 0 95 34 125 72 54 69 110 257 110 372 l0 48 56 -51 c190
  -173 384 -251 474 -189 48 33 65 71 64 148 -2 175 -133 419 -339 626 -87 89
  -253 214 -282 214 -5 0 -14 55 -21 123 -13 131 -48 280 -87 366 -14 29 -25 57
  -25 62 0 5 46 62 101 126 267 310 601 804 850 1255 35 65 66 118 69 118 7 0
  31 -42 131 -233 153 -288 207 -365 371 -523 146 -140 243 -184 408 -185 164
  -1 313 53 486 177 85 61 131 108 213 216 107 143 193 285 300 498 241 480 389
  981 453 1535 19 163 16 578 -5 750 -61 490 -181 947 -382 1455 -93 234 -153
  366 -320 705 -140 283 -251 467 -346 570 -31 33 -72 90 -92 127 -21 37 -52 87
  -71 111 l-33 44 54 89 c151 249 275 543 353 838 38 146 53 221 97 494 35 214
  37 240 36 452 0 202 -2 239 -26 363 -34 173 -94 353 -167 504 l-57 117 38 107
  c76 214 268 669 363 858 19 36 50 107 69 156 19 50 53 132 76 184 23 51 40 95
  39 96 -2 2 -30 -7 -63 -19z"/>
  </g>
  </svg>

  <!-- 左目 -->
  <line x1="97" y1="65" x2="132" y2="65" stroke="#FFA500" stroke-width="3"/>
  
  <!-- 右目 -->
  <svg xmlns="http://www.w3.org/2000/svg" x="155" y="40" width="50" height="50" viewBox="0 0 1280 1278" preserveAspectRatio="xMidYMid meet">
  <metadata>
    Created by potrace 1.15, written by Peter Selinger 2001-2017
  </metadata>
  <g transform="translate(0.000000,1278.000000) scale(0.100000,-0.100000)" fill="#FFA500" stroke="none">
    <path d="M7235 12766 c-16 -8 -42 -26 -56 -42 -14 -16 -153 -267 -309 -559 -156 -291 -298 -553 -316 -582 -53 -84 -49 -83 -328 -94 l-247 -11 -53 26 c-53 26 -59 34 -416 549 -200 287 -373 536 -386 553 -29 39 -80 64 -132 64 -43 0 -1174 -376 -1213 -403 -58 -41 -70 -89 -59 -235 24 -296 71 -892 81 -1029 l12 -153 -29 -57 c-28 -55 -38 -64 -234 -200 -113 -78 -221 -147 -240 -153 -82 -24 -92 -21 -736 246 -661 274 -642 267 -720 232 -38 -18 -781 -942 -796 -990 -8 -29 -8 -48 0 -77 8 -25 152 -223 402 -552 338 -446 391 -521 401 -564 14 -65 14 -65 -116 -375 -115 -277 -141 -316 -219 -344 -23 -8 -324 -66 -671 -128 -660 -118 -663 -119 -707 -179 -52 -70 -181 -1268 -139 -1293 6 -4 293 -110 637 -236 344 -126 640 -238 657 -248 66 -38 81 -81 141 -413 31 -169 56 -328 56 -355 0 -31 -9 -65 -23 -91 -15 -29 -167 -177 -492 -479 -259 -240 -479 -451 -490 -467 -13 -21 -19 -47 -18 -81 0 -46 25 -97 255 -544 141 -271 268 -506 283 -522 14 -15 45 -33 68 -39 39 -11 87 -2 667 129 654 148 677 151 750 117 39 -19 504 -499 532 -549 38 -70 36 -90 -66 -488 -235 -917 -230 -897 -217 -940 6 -22 22 -51 34 -65 12 -14 242 -149 511 -300 443 -249 494 -275 535 -275 27 0 59 8 76 18 17 11 230 222 475 471 245 249 461 461 482 471 73 39 93 37 459 -45 189 -42 355 -83 368 -92 69 -45 73 -54 286 -694 201 -603 207 -619 245 -653 22 -20 55 -38 77 -42 91 -17 658 19 1020 65 164 21 199 38 227 113 9 24 75 322 146 662 86 406 137 630 149 650 39 62 68 77 373 193 329 126 371 135 444 96 18 -10 248 -191 510 -403 263 -212 491 -393 508 -403 22 -13 45 -17 83 -14 51 3 62 11 349 228 583 441 638 484 657 511 11 14 22 48 24 75 5 44 -15 102 -227 658 -128 336 -235 626 -237 645 -10 69 13 112 173 332 86 117 166 224 178 236 35 39 95 65 151 64 27 0 326 -30 663 -67 l612 -66 43 19 c23 11 50 28 60 39 14 16 364 954 422 1131 22 65 8 120 -43 172 -20 21 -268 208 -551 416 -508 373 -514 378 -539 433 l-25 55 12 215 c16 281 18 294 55 348 30 43 53 56 613 337 321 161 590 299 599 306 22 19 54 85 54 112 0 42 -259 1217 -275 1248 -9 17 -32 41 -53 55 -42 27 1 24 -1013 89 -389 25 -396 27 -455 83 -43 41 -223 380 -230 434 -4 27 0 60 8 84 8 22 162 289 342 593 314 528 328 554 328 602 -1 27 -7 60 -14 74 -13 25 -850 884 -898 921 -15 12 -45 21 -80 23 l-57 4 -564 -313 c-310 -172 -582 -319 -604 -327 -69 -24 -114 -9 -300 95 -188 105 -208 120 -237 177 -26 50 -25 37 -49 751 -20 590 -21 611 -43 655 -37 75 36 53 -984 296 -172 40 -323 74 -335 74 -12 -1 -35 -7 -52 -14z m-385 -2650 c275 -36 503 -87 740 -166 1259 -416 2223 -1500 2484 -2792 57 -283 70 -419 70 -748 1 -310 -4 -386 -45 -635 -192 -1169 -955 -2197 -2024 -2725 -405 -200 -755 -305 -1245 -372 -153 -21 -711 -17 -880 5 -874 119 -1636 499 -2230 1113 -849 878 -1212 2088 -990 3300 146 797 579 1558 1196 2103 609 537 1352 856 2169 930 151 14 608 6 755 -13z"/>
  </g>
</svg>

<svg version="1.0" xmlns="http://www.w3.org/2000/svg"
x="155" y="40" width="50" height="50" viewBox="0 0 1280.000000 1280.000000"
 preserveAspectRatio="xMidYMid meet">
<metadata>
Created by potrace 1.15, written by Peter Selinger 2001-2017
</metadata>
<g transform="translate(0.000000,1280.000000) scale(0.100000,-0.100000)"
fill="#FFA500" stroke="none">
<path d="M6050 12790 c-170 -10 -396 -31 -409 -39 -7 -5 -1 -82 19 -246 20
-166 26 -241 19 -246 -6 -4 -37 -9 -68 -13 -142 -16 -394 -63 -589 -110 -76
-18 -60 -46 -132 244 -29 118 -54 217 -56 219 -17 20 -802 -238 -811 -266 -2
-6 28 -91 68 -189 39 -99 79 -200 89 -225 l19 -46 -127 -53 c-70 -30 -221
-101 -335 -158 -117 -59 -212 -101 -217 -96 -4 5 -59 100 -120 212 -62 111
-118 202 -124 202 -28 0 -478 -285 -654 -415 -44 -32 -61 -50 -54 -58 48 -61
275 -372 278 -382 3 -6 -42 -48 -98 -92 -105 -82 -245 -202 -384 -328 l-77
-70 -171 178 -172 178 -131 -133 c-165 -167 -443 -486 -443 -508 0 -3 86 -72
190 -153 105 -82 190 -153 190 -158 0 -5 -22 -37 -49 -72 -74 -95 -213 -297
-292 -423 -39 -63 -73 -114 -76 -114 -3 0 -99 57 -215 126 -115 69 -211 124
-212 122 -19 -22 -150 -265 -227 -418 -121 -244 -163 -340 -152 -350 4 -4 106
-49 226 -100 119 -51 217 -95 217 -99 0 -4 -23 -63 -51 -132 -28 -68 -84 -223
-124 -344 -51 -153 -77 -219 -87 -217 -7 1 -113 31 -236 66 -122 35 -224 60
-227 57 -27 -45 -175 -732 -175 -817 0 -20 13 -23 238 -54 130 -18 240 -36
243 -39 4 -3 3 -35 -2 -71 -17 -128 -38 -378 -45 -524 l-7 -149 -248 5 -249 5
0 -126 c0 -148 16 -445 33 -616 11 -110 14 -120 32 -118 11 1 121 14 244 29
175 21 225 24 231 14 4 -7 11 -40 15 -74 15 -138 61 -385 108 -583 l15 -63
-36 -9 c-21 -5 -127 -33 -237 -61 -110 -29 -202 -54 -204 -56 -16 -15 227
-771 259 -807 4 -4 110 33 235 83 125 50 229 90 230 88 2 -2 27 -59 56 -128
29 -69 100 -219 157 -334 77 -153 101 -210 92 -216 -7 -4 -104 -58 -216 -120
l-203 -113 15 -29 c57 -110 302 -491 408 -636 l46 -62 199 150 199 149 110
-137 c60 -75 149 -181 198 -236 49 -54 109 -120 132 -147 l44 -49 -177 -172
-176 -171 103 -104 c180 -182 521 -478 539 -468 4 3 71 87 150 188 78 100 145
186 149 190 4 4 21 -3 37 -17 62 -52 327 -237 453 -317 114 -72 128 -84 119
-100 -5 -10 -61 -105 -124 -209 -63 -105 -115 -194 -115 -198 0 -22 636 -351
745 -386 19 -5 30 16 115 215 52 122 99 223 105 225 5 2 71 -21 145 -51 74
-30 227 -85 340 -121 113 -37 207 -68 208 -70 2 -1 -26 -106 -62 -233 -36
-127 -66 -234 -66 -239 0 -11 365 -101 545 -136 221 -42 286 -50 294 -38 3 6
21 115 39 244 19 128 35 234 36 236 2 1 36 -2 77 -8 120 -18 353 -38 516 -45
l153 -8 -7 -248 -6 -249 139 0 c268 1 713 35 720 55 3 6 -8 117 -24 246 -16
129 -28 235 -26 237 1 2 46 10 100 18 218 32 383 63 571 107 l61 15 59 -235
c32 -130 63 -238 70 -240 26 -10 481 130 718 221 57 22 89 40 87 48 -2 7 -41
109 -87 226 -47 116 -85 216 -85 220 0 5 57 33 128 62 70 29 219 100 332 156
158 80 208 100 216 91 6 -7 59 -100 118 -207 60 -107 111 -198 114 -202 22
-22 719 430 716 464 -1 8 -62 95 -136 194 -74 98 -137 184 -141 190 -4 7 47
55 131 121 75 61 186 155 246 209 60 54 126 114 147 132 l37 32 171 -177 171
-178 106 105 c122 122 287 304 398 440 60 74 74 97 63 105 -183 138 -376 299
-370 308 4 7 28 39 54 72 73 94 213 297 290 421 l70 112 214 -128 215 -129 80
142 c120 212 315 612 305 627 -2 3 -103 48 -224 100 -122 51 -221 98 -221 104
0 6 25 72 55 146 30 74 85 227 121 340 37 113 68 206 69 207 1 2 103 -26 228
-62 124 -36 233 -65 240 -65 28 0 208 813 185 835 -2 3 -111 20 -242 39 -131
19 -240 36 -242 39 -2 2 2 53 10 113 17 127 32 305 42 491 l7 133 248 0 249 0
0 133 c0 213 -33 702 -49 719 -3 4 -114 -6 -246 -22 -131 -16 -241 -27 -243
-26 -2 2 -10 48 -18 102 -33 226 -72 430 -107 567 -12 43 -12 59 -4 63 7 2
111 29 232 59 121 31 225 57 231 60 8 2 -2 54 -32 157 -82 294 -220 682 -238
675 -6 -3 -109 -44 -229 -92 -123 -49 -222 -84 -227 -79 -4 5 -29 61 -56 124
-26 63 -96 210 -154 327 l-107 212 213 118 c117 65 214 123 214 128 1 34 -422
686 -460 710 -5 3 -96 -60 -203 -140 -107 -80 -196 -145 -199 -145 -3 0 -27
28 -53 63 -85 108 -228 278 -332 391 l-100 109 177 173 177 174 -136 133
c-189 186 -478 437 -502 437 -4 0 -72 -82 -150 -182 -78 -101 -146 -187 -151
-192 -5 -6 -21 0 -40 14 -134 100 -339 242 -448 311 -71 45 -130 85 -130 89 0
5 56 102 124 216 l125 208 -67 39 c-201 117 -620 326 -685 342 -20 5 -29 -11
-117 -220 -52 -124 -97 -225 -100 -225 -4 0 -62 23 -131 51 -129 53 -529 189
-554 189 -8 0 -15 2 -15 5 0 3 29 108 65 233 36 125 65 232 65 238 0 13 -124
48 -351 99 -178 40 -475 92 -483 84 -3 -3 -21 -112 -40 -243 -20 -131 -37
-240 -38 -241 -2 -1 -32 1 -68 6 -132 17 -379 38 -522 45 l-148 7 0 248 0 249
-157 -2 c-87 0 -214 -4 -283 -8z m680 -1310 c1122 -79 2157 -505 3010 -1240
112 -96 384 -365 471 -465 251 -288 436 -549 621 -874 33 -56 58 -104 56 -105
-6 -5 -3613 -1445 -3626 -1448 -9 -2 -48 84 -116 253 -57 141 -106 261 -109
267 -5 6 -98 -26 -257 -90 -138 -55 -252 -99 -254 -97 -6 6 -1444 3601 -1448
3619 -3 16 20 23 227 70 231 52 455 85 745 109 140 12 514 12 680 1z m-2030
-2419 c398 -995 724 -1813 724 -1818 0 -4 -111 -53 -247 -108 -137 -55 -249
-103 -250 -106 -1 -3 45 -123 102 -267 58 -144 102 -264 99 -267 -6 -7 -3618
-1455 -3627 -1455 -9 0 -64 221 -95 380 -109 546 -125 1138 -45 1695 107 755
386 1479 814 2120 205 306 391 530 662 795 256 252 470 426 754 613 130 86
365 227 380 227 3 0 331 -814 729 -1809z m6644 -1448 c113 -504 140 -735 141
-1203 0 -339 -7 -449 -45 -720 -157 -1108 -676 -2136 -1466 -2911 -268 -262
-458 -418 -739 -606 -170 -114 -401 -250 -410 -242 -4 5 -1444 3606 -1448
3621 -1 6 96 50 218 99 121 49 234 95 252 103 l32 15 -95 237 c-52 130 -94
237 -92 239 12 9 3606 1443 3619 1444 12 1 20 -18 33 -76z m-4696 -302 c160
-46 305 -132 418 -245 64 -65 141 -163 132 -170 -1 -2 -159 -65 -351 -141
-215 -86 -351 -135 -356 -129 -9 8 -267 647 -278 686 -7 23 29 27 212 23 116
-2 167 -8 223 -24z m-604 -461 c86 -216 136 -354 130 -359 -17 -17 -695 -283
-702 -276 -4 4 -7 84 -7 178 0 148 3 183 23 250 59 207 180 386 340 507 37 27
69 50 72 50 3 0 68 -158 144 -350z m1292 -327 c11 -103 -2 -288 -26 -371 -45
-158 -130 -305 -244 -418 -65 -64 -163 -141 -170 -132 -12 15 -276 693 -273
701 3 11 667 284 694 286 7 1 14 -25 19 -66z m-883 -696 c77 -191 136 -351
132 -355 -3 -4 -84 -7 -178 -7 -148 0 -183 3 -250 23 -164 47 -309 131 -423
246 -64 65 -141 163 -132 170 15 12 686 275 697 273 10 -1 67 -133 154 -350z
m-792 -644 c45 -115 88 -220 95 -235 l14 -26 250 100 c138 55 252 99 254 97 6
-6 1444 -3601 1448 -3619 2 -10 -21 -20 -87 -37 -483 -125 -1061 -178 -1565
-143 -1118 78 -2155 505 -3010 1239 -235 202 -538 527 -732 786 -137 183 -378
560 -378 591 0 12 3579 1451 3611 1453 13 1 38 -51 100 -206z"/>
</g>
</svg>


  <!-- 右手に持たせる（回転したレンチ） -->
    <g transform="translate(155, 40) rotate(290, 50, 50)">
<svg version="1.0" xmlns="http://www.w3.org/2000/svg"
 width="100" height="100"
 x="-100" y="20" viewBox="0 0 747.000000 1280.000000"
 preserveAspectRatio="xMidYMid meet">
<metadata>
Created by potrace 1.15, written by Peter Selinger 2001-2017
</metadata>
<g transform="translate(0.000000,1280.000000) scale(0.100000,-0.100000)"
fill="#FFA500" stroke="none">
<path d="M4610 12785 c-254 -51 -465 -183 -605 -380 -23 -33 -218 -355 -432
-716 -356 -597 -406 -676 -566 -891 -152 -205 -182 -251 -225 -350 l-49 -113
51 -5 51 -5 24 -87 23 -88 47 0 47 0 19 73 c28 111 25 108 103 105 l67 -3 24
-87 25 -88 46 0 47 0 23 85 23 85 73 0 73 0 10 -37 c6 -21 15 -59 22 -85 11
-47 12 -48 50 -48 22 0 39 -3 39 -7 0 -5 7 -55 15 -113 19 -142 19 -176 -6
-227 -45 -92 -35 -229 23 -319 l30 -47 -11 -206 c-21 -381 -82 -677 -203 -991
-47 -122 -197 -431 -2534 -5222 -773 -1584 -856 -1758 -887 -1848 -140 -415
58 -879 458 -1075 440 -216 978 -40 1193 390 16 33 721 1696 1566 3695 846
1999 1569 3699 1607 3777 233 477 617 881 1319 1390 69 49 231 167 360 260
394 286 688 528 750 619 70 100 124 244 152 404 21 121 16 457 -10 615 -84
518 -290 987 -562 1278 -99 105 -190 174 -301 226 -134 63 -125 65 -132 -31
-4 -46 -7 -402 -7 -793 0 -681 -1 -711 -19 -741 -40 -66 -131 -112 -262 -133
-40 -7 -314 -11 -720 -11 l-656 0 -51 64 c-50 61 -52 66 -52 124 0 51 3 63 20
72 20 11 20 21 20 755 l0 745 -22 -1 c-13 0 -52 -7 -88 -14z m-433 -2520 c18
-71 14 -81 -6 -15 -17 54 -18 55 -61 61 l-45 7 49 -2 50 -1 13 -50z m252 48
l-66 -4 -24 -87 -24 -87 -56 -3 c-52 -3 -57 -1 -63 20 -9 34 -6 47 4 21 8 -19
17 -23 54 -23 l45 0 16 52 c8 28 15 55 15 59 0 4 4 19 10 33 9 25 13 26 82 24
l73 -2 -66 -3z m391 -3 c0 -6 -28 -10 -65 -10 l-64 0 -10 -37 c-6 -21 -16 -59
-23 -85 l-12 -48 -53 0 c-65 0 -70 18 -6 22 l46 3 19 70 c11 39 21 76 23 83 5
15 145 17 145 2z m330 0 c0 -5 -28 -10 -62 -12 l-62 -3 -21 -80 -22 -80 -56
-3 c-35 -2 -57 1 -57 8 0 5 21 10 49 10 48 0 49 1 55 34 4 19 13 57 22 85 l15
51 69 0 c39 0 70 -4 70 -10z m-819 -1182 l14 -63 72 -3 72 -3 10 38 c5 21 13
50 17 66 6 26 9 27 69 27 l64 0 15 -54 c9 -30 16 -59 16 -65 0 -7 27 -11 75
-11 48 0 75 4 75 11 0 6 7 35 16 65 l15 54 59 0 59 0 16 -52 c8 -28 15 -58 15
-65 0 -10 19 -13 73 -13 l73 0 12 38 11 37 -3 -49 c-4 -50 -24 -86 -67 -118
-23 -18 -53 -19 -499 -18 -530 0 -497 -4 -548 71 l-23 34 60 3 c41 2 61 7 61
16 0 7 7 36 15 64 l16 52 63 0 63 0 14 -62z m-3198 -7557 c186 -66 329 -197
400 -367 34 -82 49 -161 48 -263 -2 -287 -189 -530 -476 -617 -91 -28 -257
-26 -355 4 -174 54 -318 177 -394 336 -55 113 -70 176 -69 291 1 183 60 322
193 455 94 94 191 150 305 176 87 20 273 12 348 -15z"/>
</g>
</svg>
</g>
</svg>

  </g>
</svg>
